# xmcd
#
# Track frame offsets: 
#        150
#        9600
#        24225
#        35775
#        54012
#        67487
#        83630
#        90992
#        102229
#        129904
#        142716
#        161571
#        176775
#        183028
#        194625
#        206553
#        220187
#        233739
#        246851
#        261351
#        273189
#        283760
#
# Disc length: 3947 seconds
#
# Revision: 0
# Processed by: cddbd v1.5.2PL0 Copyright (c) Steve Scherf et al.
# Submitted via: ExactAudioCopy v0.99pb5
#
DISCID=320f6916
DTITLE=Various Artist - Cowboy Classics
DYEAR=2005
DGENRE=Country
TTITLE0=Frankie Lane - Rawhide
TTITLE1=Faron Young - Saginaw Michigan
TTITLE2=Roger Miller - King Of The Road
TTITLE3=Johnny Cash - Orange Blossom Special
TTITLE4=Gene Pitney - The Man Who Shot Liberty Valance
TTITLE5=Brenda Lee - Johnny One Time
TTITLE6=Hank Snow - The Hawaiian Cowboy
TTITLE7=George Jones - Swinging Doors
TTITLE8=Jerry Lee Lewis - Mexicali Rose
TTITLE9=Frankie Lane - High Noon (Do Not Forsake Me)
TTITLE10=Bobby Bare - Tequila Sheila
TTITLE11=Don Gibson - (I Heard That) Lonesome Whistle
TTITLE12=Merle Haggard - The Fightin' Side Of Me
TTITLE13=Hank Snow - Hobo Bills Last Ride
TTITLE14=Lynn Anderson - Rodeo Cowboy
TTITLE15=Slim Whitman - You Are My Sunshine
TTITLE16=The Kingston Trio - Tom Dooley
TTITLE17=Hank Williams - Jambalaya (On The Bayou)
TTITLE18=Willie Nelson - Blue Eyes Grying In The Rain
TTITLE19=George Jones - White Lightning
TTITLE20=Johnny Cash - Wreck Of The Ol'97
TTITLE21=Willie Nelson - Seven Spanish Angels
EXTD=
EXTT0=
EXTT1=
EXTT2=
EXTT3=
EXTT4=
EXTT5=
EXTT6=
EXTT7=
EXTT8=
EXTT9=
EXTT10=
EXTT11=
EXTT12=
EXTT13=
EXTT14=
EXTT15=
EXTT16=
EXTT17=
EXTT18=
EXTT19=
EXTT20=
EXTT21=
PLAYORDER=
